<svg width="94" height="75" viewBox="0 0 94 75" fill="none" xmlns="http://www.w3.org/2000/svg">
<path d="M47.373 12.4805L33.1934 23.9648C30.835 25.8691 30.3809 29.2969 32.168 31.7432C34.0576 34.3506 37.7344 34.8633 40.2686 32.8857L54.8145 21.5771C55.8398 20.7861 57.3047 20.9619 58.1104 21.9873C58.916 23.0127 58.7256 24.4775 57.7002 25.2832L54.6387 27.6562L75 46.4062V18.75H74.8975L74.3262 18.3838L63.6914 11.5723C61.4502 10.1367 58.8281 9.375 56.1621 9.375C52.9688 9.375 49.8633 10.4736 47.373 12.4805ZM50.7129 30.7031L43.1396 36.5918C38.5254 40.1953 31.8311 39.2578 28.374 34.5117C25.1221 30.0439 25.9424 23.8037 30.2344 20.332L42.4219 10.4736C40.7227 9.75586 38.8916 9.38965 37.0312 9.38965C34.2773 9.375 31.5967 10.1953 29.2969 11.7188L18.75 18.75V51.5625H22.8809L36.2695 63.7793C39.1406 66.4014 43.5791 66.1963 46.2012 63.3252C47.0068 62.4316 47.5488 61.3916 47.8271 60.3076L50.3174 62.5928C53.1738 65.2148 57.627 65.0244 60.249 62.168C60.9082 61.4502 61.3916 60.6152 61.6992 59.751C64.541 61.6553 68.4082 61.2598 70.7959 58.6523C73.418 55.7959 73.2275 51.3428 70.3711 48.7207L50.7129 30.7031ZM2.34375 18.75C1.05469 18.75 0 19.8047 0 21.0938V51.5625C0 54.1553 2.09473 56.25 4.6875 56.25H9.375C11.9678 56.25 14.0625 54.1553 14.0625 51.5625V18.75H2.34375ZM7.03125 46.875C7.65285 46.875 8.24899 47.1219 8.68853 47.5615C9.12807 48.001 9.375 48.5971 9.375 49.2188C9.375 49.8404 9.12807 50.4365 8.68853 50.876C8.24899 51.3156 7.65285 51.5625 7.03125 51.5625C6.40965 51.5625 5.81351 51.3156 5.37397 50.876C4.93443 50.4365 4.6875 49.8404 4.6875 49.2188C4.6875 48.5971 4.93443 48.001 5.37397 47.5615C5.81351 47.1219 6.40965 46.875 7.03125 46.875ZM79.6875 18.75V51.5625C79.6875 54.1553 81.7822 56.25 84.375 56.25H89.0625C91.6553 56.25 93.75 54.1553 93.75 51.5625V21.0938C93.75 19.8047 92.6953 18.75 91.4062 18.75H79.6875ZM84.375 49.2188C84.375 48.5971 84.6219 48.001 85.0615 47.5615C85.501 47.1219 86.0971 46.875 86.7188 46.875C87.3404 46.875 87.9365 47.1219 88.376 47.5615C88.8156 48.001 89.0625 48.5971 89.0625 49.2188C89.0625 49.8404 88.8156 50.4365 88.376 50.876C87.9365 51.3156 87.3404 51.5625 86.7188 51.5625C86.0971 51.5625 85.501 51.3156 85.0615 50.876C84.6219 50.4365 84.375 49.8404 84.375 49.2188Z" fill="#14C14D"/>
</svg>
