<svg width="75" height="75" viewBox="0 0 75 75" fill="none" xmlns="http://www.w3.org/2000/svg">
<path d="M42.2812 68.75H31.25C30.4688 68.75 29.8125 68.1875 29.6875 67.4375L28.5312 59.1562C26.5625 58.375 24.875 57.3125 23.25 56.0625L15.4688 59.2188C14.7812 59.4688 13.9375 59.2188 13.5625 58.5312L7.3125 47.7188C7.12124 47.3968 7.05381 47.0161 7.12283 46.648C7.19184 46.2799 7.39258 45.9496 7.6875 45.7188L14.2813 40.5312C14.1563 39.5312 14.0625 38.5312 14.0625 37.5C14.0625 36.4688 14.1563 35.4375 14.2813 34.375L7.6875 29.2812C7.39258 29.0504 7.19184 28.7201 7.12283 28.352C7.05381 27.9839 7.12124 27.6032 7.3125 27.2812L13.5625 16.4688C13.9375 15.7812 14.7812 15.5 15.4688 15.7813L23.25 18.9063C24.875 17.6875 26.5625 16.625 28.5312 15.8438L29.6875 7.5625C29.8125 6.8125 30.4688 6.25 31.25 6.25H43.75C44.5312 6.25 45.1875 6.8125 45.3125 7.5625L46.4688 15.8438C48.4375 16.625 50.125 17.6875 51.75 18.9063L59.5312 15.7813C60.2188 15.5 61.0625 15.7812 61.4375 16.4688L67.6875 27.2812C68.0625 27.9687 67.9063 28.8125 67.3125 29.2812L60.7188 34.375C60.8438 35.4375 60.9375 36.4688 60.9375 37.5V38.0937C59.375 37.7187 57.8125 37.5 56.25 37.5C53.375 37.5 50.6875 38.1562 48.25 39.3125C48.3437 38.7188 48.4375 38.125 48.4375 37.5C48.4375 31.4688 43.5312 26.5625 37.5 26.5625C31.4688 26.5625 26.5625 31.4688 26.5625 37.5C26.5625 43.5312 31.4688 48.4375 37.5 48.4375C38.125 48.4375 38.7187 48.3438 39.3125 48.25C37.7265 51.578 37.1621 55.3013 37.6904 58.9499C38.2188 62.5984 39.8163 66.0086 42.2812 68.75ZM65.625 46.875H46.875V65.625H65.625V46.875Z" fill="#14C14D"/>
</svg>
