<svg width="75" height="75" viewBox="0 0 75 75" fill="none" xmlns="http://www.w3.org/2000/svg">
<path d="M34.3906 6.25L57.1969 13.375C57.8329 13.5736 58.3889 13.9703 58.7835 14.5072C59.1782 15.044 59.3909 15.693 59.3906 16.3594V21.875H65.6406C66.4694 21.875 67.2643 22.2042 67.8503 22.7903C68.4364 23.3763 68.7656 24.1712 68.7656 25V50C68.7656 50.8288 68.4364 51.6237 67.8503 52.2097C67.2643 52.7958 66.4694 53.125 65.6406 53.125L55.5781 53.1281C54.3687 54.7219 52.9 56.1281 51.2031 57.2844L34.3906 68.75L17.5781 57.2875C15.0548 55.567 12.9898 53.2562 11.5629 50.556C10.136 47.8557 9.39031 44.8478 9.39063 41.7937V16.3594C9.391 15.6936 9.60402 15.0453 9.99863 14.509C10.3932 13.9727 10.9488 13.5765 11.5844 13.3781L34.3906 6.25ZM34.3906 12.7937L15.6406 18.6562V41.7937C15.6402 43.707 16.0789 45.5947 16.923 47.3117C17.7671 49.0286 18.9941 50.5289 20.5094 51.6969L21.1 52.1219L34.3906 61.1844L46.2094 53.125H31.2656C30.4368 53.125 29.642 52.7958 29.0559 52.2097C28.4699 51.6237 28.1406 50.8288 28.1406 50V25C28.1406 24.1712 28.4699 23.3763 29.0559 22.7903C29.642 22.2042 30.4368 21.875 31.2656 21.875H53.1406V18.6562L34.3906 12.7937ZM34.3906 37.5V46.875H62.5156V37.5H34.3906ZM34.3906 31.25H62.5156V28.125H34.3906V31.25Z" fill="#14C14D"/>
</svg>
