<svg width="75" height="75" viewBox="0 0 75 75" fill="none" xmlns="http://www.w3.org/2000/svg">
<path fill-rule="evenodd" clip-rule="evenodd" d="M53.5554 1.17856C54.1178 0.614497 54.8351 0.230325 55.6163 0.074846C56.3976 -0.0806329 57.2074 -0.000402209 57.9429 0.305347L69.3375 5.03035C70.3202 5.4361 71.1019 6.21476 71.5116 7.19578C71.9213 8.17679 71.9255 9.28019 71.5232 10.2643L66.8679 21.6589C66.5671 22.3947 66.0549 23.0248 65.3959 23.4693C64.737 23.9139 63.961 24.1531 63.1661 24.1565C62.3712 24.16 61.5932 23.9275 60.9304 23.4887C60.2677 23.0498 59.75 22.4242 59.4429 21.6911L57.6054 17.2982L11.3304 37.0714C10.8449 37.279 10.3234 37.3888 9.79551 37.3948C9.26761 37.4008 8.74372 37.3027 8.25372 37.1062C7.76373 36.9097 7.31723 36.6187 6.93973 36.2496C6.56223 35.8806 6.26112 35.4408 6.05358 34.9553C5.84604 34.4699 5.73615 33.9484 5.73018 33.4205C5.7242 32.8926 5.82226 32.3687 6.01876 31.8787C6.21525 31.3887 6.50634 30.9422 6.87539 30.5647C7.24444 30.1872 7.68423 29.8861 8.16965 29.6786L54.5036 9.88392L52.6982 5.57142C52.3893 4.83675 52.3059 4.02681 52.4585 3.24459C52.6111 2.46237 52.9929 1.74321 53.5554 1.17856ZM68.3036 29.3571C69.7244 29.3571 71.087 29.9215 72.0917 30.9262C73.0963 31.9309 73.6607 33.2935 73.6607 34.7143V72.2143C73.6607 72.9247 73.3785 73.606 72.8762 74.1083C72.3739 74.6106 71.6926 74.8928 70.9822 74.8928H57.5893C56.8789 74.8928 56.1976 74.6106 55.6953 74.1083C55.1929 73.606 54.9107 72.9247 54.9107 72.2143V34.7143C54.9107 33.2935 55.4751 31.9309 56.4798 30.9262C57.4845 29.9215 58.8471 29.3571 60.2679 29.3571H68.3036ZM45.3054 38.9571C44.3001 37.9544 42.9378 37.3917 41.5179 37.3928H33.4822C32.0613 37.3928 30.6987 37.9573 29.6941 38.9619C28.6894 39.9666 28.125 41.3292 28.125 42.75V72.2143C28.125 72.9247 28.4072 73.606 28.9095 74.1083C29.4119 74.6106 30.0932 74.8928 30.8036 74.8928H44.1964C44.9068 74.8928 45.5881 74.6106 46.0905 74.1083C46.5928 73.606 46.875 72.9247 46.875 72.2143V42.75C46.8756 42.0456 46.7372 41.3481 46.4679 40.6973C46.1985 40.0464 45.8035 39.4551 45.3054 38.9571ZM14.7322 45.4286C16.153 45.4286 17.5156 45.993 18.5202 46.9976C19.5249 48.0023 20.0893 49.3649 20.0893 50.7857V72.2143C20.0893 72.9247 19.8071 73.606 19.3048 74.1083C18.8024 74.6106 18.1211 74.8928 17.4107 74.8928H4.01787C3.30746 74.8928 2.62616 74.6106 2.12383 74.1083C1.6215 73.606 1.33929 72.9247 1.33929 72.2143V50.7857C1.33929 49.3649 1.90371 48.0023 2.90837 46.9976C3.91302 45.993 5.27563 45.4286 6.69644 45.4286H14.7322Z" fill="#14C14D"/>
</svg>
